HIERARCHY
ROOT Hips
{
	OFFSET	0.00	0.00	0.00
	CHANNELS 6 Xposition Yposition Zposition Zrotation Xrotation Yrotation
	JOINT LeftHip
	{
		OFFSET	 3.430000	 0.000000	 0.000000
		CHANNELS 3 Zrotation Xrotation Yrotation
		JOINT LeftKnee
		{
			OFFSET	 0.000000	-18.469999	 0.000000
			CHANNELS 3 Zrotation Xrotation Yrotation
			JOINT LeftAnkle
			{
				OFFSET	 0.000000	-17.950001	 0.000000
				CHANNELS 3 Zrotation Xrotation Yrotation
				End Site 
				{
					OFFSET	 0.000000	-3.119996	 0.000000
				}
			}
		}
	}
	JOINT RightHip
	{
		OFFSET	-3.430000	 0.000000	 0.000000
		CHANNELS 3 Zrotation Xrotation Yrotation
		JOINT RightKnee
		{
			OFFSET	 0.000000	-18.809999	 0.000000
			CHANNELS 3 Zrotation Xrotation Yrotation
			JOINT RightAnkle
			{
				OFFSET	 0.000000	-17.570000	 0.000000
				CHANNELS 3 Zrotation Xrotation Yrotation
				End Site 
				{
					OFFSET	 0.000000	-3.250000	 0.000000
				}
			}
		}
	}
	JOINT Chest
	{
		OFFSET	 0.000000	 4.570000	 0.000000
		CHANNELS 3 Zrotation Xrotation Yrotation
		JOINT LeftCollar
		{
			OFFSET	 1.060000	 15.330000	 1.760000
			CHANNELS 3 Zrotation Xrotation Yrotation
			JOINT LeftShoulder
			{
				OFFSET	 5.810000	 0.000000	 0.000000
				CHANNELS 3 Zrotation Xrotation Yrotation
				JOINT LeftElbow
				{
					OFFSET	 0.000000	-12.080000	 0.000000
					CHANNELS 3 Zrotation Xrotation Yrotation
					JOINT LeftWrist
					{
						OFFSET	 0.000000	-9.820000	 0.000000
						CHANNELS 3 Zrotation Xrotation Yrotation
						End Site 
						{
							OFFSET	 0.000000	-7.369996	 0.000000
						}
					}
				}
			}
		}
		JOINT RightCollar
		{
			OFFSET	-1.060000	 15.330000	 1.760000
			CHANNELS 3 Zrotation Xrotation Yrotation
			JOINT RightShoulder
			{
				OFFSET	-6.060000	 0.000000	 0.000000
				CHANNELS 3 Zrotation Xrotation Yrotation
				JOINT RightElbow
				{
					OFFSET	 0.000000	-11.900000	 0.000000
					CHANNELS 3 Zrotation Xrotation Yrotation
					JOINT RightWrist
					{
						OFFSET	 0.000000	-9.520000	 0.000000
						CHANNELS 3 Zrotation Xrotation Yrotation
						End Site 
						{
							OFFSET	 0.000000	-7.140012	 0.000000
						}
					}
				}
			}
		}
		JOINT Neck
		{
			OFFSET	 0.000000	 17.620001	 0.000000
			CHANNELS 3 Zrotation Xrotation Yrotation
			JOINT Head
			{
				OFFSET	 0.000000	 5.190000	 0.000000
				CHANNELS 3 Zrotation Xrotation Yrotation
				End Site 
				{
					OFFSET	 0.000000	 4.140008	 0.000000
				}
			}
		}
	}
}

MOTION
Frames: 21
Frame Time: 0.033333
-55.8413 2.606 -26.4471 2.5941 4.62324 96.3616 0.402558 -10.7085 5.80361 1.24003 16.8555 7.69966 -6.49871 3.02331 -2.97955 -3.40345 5.39247 -26.8499 2.83499 4.78129 6.07913 -4.51301 -10.2365 -2.14303 6.27824 28.2547 -4.1401 0 0 0 -3.11693 -29.2237 -29.1717 -0.190642 5.80691 -0.460161 1.12059 -0.686923 -57.6585 0 0 0 -15.3526 -25.3442 0.28603 8.19444 -8.63549 3.42426 12.6772 -16.8547 46.1568 0 0 0 -8.856 -5.78445 12.0926 
-55.8387 2.6087 -26.4594 2.58635 4.61802 96.3573 0.399031 -10.6921 5.80685 1.23206 16.8335 7.69562 -6.48583 3.01185 -2.97331 -3.4139 5.3987 -26.8297 2.82424 4.78575 6.06944 -4.4892 -10.251 -2.1478 6.27687 28.239 -4.12415 0 0 0 -3.1365 -29.222 -29.1908 -0.160437 5.86583 -0.434073 1.08104 -0.638435 -57.7557 0 0 0 -15.3352 -25.3717 0.314206 8.19181 -8.61703 3.41135 12.6702 -16.8955 46.165 0 0 0 -8.87422 -5.798 12.1086 
-55.8369 2.6104 -26.4676 2.58189 4.61753 96.3741 0.377699 -10.6752 5.79432 1.23831 16.8107 7.68403 -6.47946 3.0076 -2.95618 -3.42836 5.40656 -26.8279 2.81221 4.78459 6.06531 -4.46272 -10.2579 -2.14988 6.28759 28.2284 -4.12477 0 0 0 -3.14648 -29.2174 -29.2047 -0.156315 5.87924 -0.420612 1.03436 -0.645452 -57.8229 0 0 0 -15.3342 -25.4142 0.332364 8.19185 -8.59425 3.39122 12.6858 -16.9233 46.1866 0 0 0 -8.89101 -5.8146 12.1008 
-55.8356 2.6117 -26.476 2.57868 4.61713 96.386 0.364828 -10.6504 5.77186 1.23442 16.7778 7.69231 -6.47027 3.007 -2.95457 -3.44337 5.41195 -26.8219 2.80809 4.79353 6.05556 -4.44419 -10.2692 -2.15798 6.29381 28.2141 -4.11683 0 0 0 -3.14049 -29.2151 -29.1419 -0.19378 5.84659 -0.490049 0.951918 -0.773468 -57.9417 0 0 0 -15.3372 -25.4475 0.341093 8.18705 -8.58756 3.39116 12.7036 -16.9341 46.1799 0 0 0 -8.90714 -5.79441 12.0115 
-55.8331 2.6142 -26.4885 2.56926 4.61493 96.4141 0.322317 -10.607 5.74224 1.23734 16.7211 7.69063 -6.44695 2.99826 -2.93883 -3.46967 5.42383 -26.8221 2.78351 4.79522 6.06742 -4.3894 -10.2816 -2.18236 6.29994 28.1772 -4.09883 0 0 0 -3.13368 -29.1965 -29.0471 -0.249658 5.79192 -0.568201 0.77363 -0.971296 -58.3045 0 0 0 -15.3246 -25.499 0.360074 8.18076 -8.56242 3.36626 12.7141 -16.9894 46.1698 0 0 0 -8.94289 -5.7869 11.932 
-55.8281 2.6192 -26.5036 2.56392 4.60634 96.4323 0.292195 -10.5613 5.7136 1.24739 16.6716 7.68664 -6.43555 2.98661 -2.92337 -3.50788 5.40534 -26.8084 2.765 4.84555 6.06596 -4.34668 -10.3038 -2.20996 6.32093 28.1525 -4.08268 0 0 0 -3.06847 -29.1595 -28.8878 -0.429338 5.52489 -0.783741 0.604464 -1.36818 -58.5481 0 0 0 -15.3279 -25.5397 0.372831 8.18435 -8.55922 3.35541 12.7444 -16.9988 46.1592 0 0 0 -8.96504 -5.75739 11.8504 
-55.8206 2.6217 -26.5212 2.56873 4.603 96.459 0.250974 -10.4984 5.67043 1.24675 16.608 7.69232 -6.40836 2.97805 -2.91434 -3.54335 5.40595 -26.8145 2.74295 4.88922 6.07559 -4.29542 -10.3289 -2.23494 6.33856 28.1349 -4.07157 0 0 0 -2.98404 -29.0664 -28.7769 -0.677974 5.10534 -0.990229 0.476785 -1.75725 -58.8051 0 0 0 -15.3286 -25.5768 0.381705 8.1868 -8.54713 3.33296 12.7825 -17.0195 46.1639 0 0 0 -8.97857 -5.73691 11.7616 
-55.8156 2.6242 -26.5338 2.58087 4.59682 96.4866 0.217076 -10.421 5.63189 1.2435 16.5424 7.69209 -6.37709 2.96729 -2.905 -3.59695 5.38822 -26.8034 2.7325 4.97582 6.07749 -4.25734 -10.3641 -2.27361 6.3656 28.1299 -4.05561 0 0 0 -2.89632 -28.9572 -28.6374 -0.967935 4.60905 -1.22516 0.36551 -2.20276 -59.0986 0 0 0 -15.3519 -25.596 0.349721 8.19314 -8.54354 3.33262 12.8303 -17.0358 46.158 0 0 0 -8.98586 -5.67631 11.6789 
-55.8131 2.6268 -26.5413 2.5853 4.59703 96.5428 0.164003 -10.3606 5.56512 1.25449 16.4815 7.69518 -6.35389 2.96421 -2.89848 -3.63586 5.38724 -26.828 2.72462 5.02643 6.0889 -4.22115 -10.3832 -2.31107 6.40664 28.1188 -4.06733 0 0 0 -2.78839 -28.8618 -28.4772 -1.30209 4.08838 -1.45581 0.247064 -2.63896 -59.4037 0 0 0 -15.3845 -25.6164 0.302093 8.19999 -8.53945 3.33248 12.8765 -17.0372 46.1309 0 0 0 -8.99136 -5.62132 11.5829 
-55.8106 2.6318 -26.5488 2.58984 4.5959 96.5963 0.123495 -10.3048 5.49663 1.2577 16.4332 7.70504 -6.33149 2.95301 -2.90356 -3.6862 5.35424 -26.8489 2.71567 5.12761 6.10553 -4.18965 -10.4168 -2.365 6.44266 28.1017 -4.07575 0 0 0 -2.68508 -28.7472 -28.313 -1.63742 3.54448 -1.68142 0.123101 -3.05124 -59.7359 0 0 0 -15.4049 -25.6025 0.258368 8.19928 -8.54623 3.33386 12.9166 -17.0345 46.0871 0 0 0 -8.99311 -5.54494 11.4947 
-55.8131 2.6268 -26.5539 2.61104 4.59177 96.6597 0.0799404 -10.2495 5.43244 1.25956 16.401 7.70929 -6.30372 2.94181 -2.90814 -3.74682 5.33165 -26.8672 2.72643 5.23442 6.1148 -4.16626 -10.4503 -2.41701 6.46575 28.0758 -4.06966 0 0 0 -2.60442 -28.6029 -28.2367 -1.96545 3.00505 -1.83923 0.0596836 -3.36213 -60.0171 0 0 0 -15.409 -25.5534 0.20406 8.2053 -8.53605 3.32113 12.9619 -17.0412 46.0359 0 0 0 -8.96849 -5.4461 11.4857 
-55.8131 2.6268 -26.5564 2.62166 4.58691 96.7356 0.047867 -10.2198 5.3487 1.25246 16.3839 7.71278 -6.27779 2.93214 -2.9027 -3.80596 5.30482 -26.8868 2.74637 5.334 6.10986 -4.15019 -10.4667 -2.46952 6.49629 28.0617 -4.0697 0 0 0 -2.57979 -28.4919 -28.2399 -2.22037 2.57472 -1.94326 0.0812303 -3.47571 -60.183 0 0 0 -15.4209 -25.5102 0.15058 8.21004 -8.53438 3.30655 13.0015 -17.0415 45.9807 0 0 0 -8.94311 -5.36145 11.4672 
-55.8131 2.6242 -26.5614 2.62019 4.58012 96.8045 0.0134249 -10.2033 5.28532 1.25299 16.3642 7.71606 -6.25299 2.92373 -2.90919 -3.82402 5.31501 -26.9135 2.75705 5.37064 6.11535 -4.13762 -10.4903 -2.51405 6.50847 28.0405 -4.04282 0 0 0 -2.56935 -28.3936 -28.3077 -2.40051 2.28049 -1.94164 0.0887969 -3.54899 -60.3628 0 0 0 -15.4296 -25.4676 0.0718852 8.21365 -8.5257 3.30597 13.043 -17.0438 45.9309 0 0 0 -8.91485 -5.28998 11.4411 
-55.8131 2.6217 -26.5664 2.61457 4.58167 96.8746 -0.0231067 -10.1942 5.23314 1.2508 16.3505 7.71208 -6.23088 2.91702 -2.91798 -3.85576 5.30932 -26.9318 2.76763 5.41117 6.11947 -4.12604 -10.5041 -2.56623 6.50926 28.0107 -4.0094 0 0 0 -2.58336 -28.3421 -28.327 -2.52102 2.09786 -1.97372 0.0617039 -3.60956 -60.524 0 0 0 -15.4397 -25.4194 -0.00110719 8.21293 -8.5047 3.32065 13.0819 -17.0416 45.8774 0 0 0 -8.88552 -5.19519 11.4074 
-55.8106 2.6242 -26.5739 2.59988 4.58325 96.9257 -0.0548441 -10.2093 5.1906 1.25084 16.3561 7.71501 -6.2104 2.90821 -2.92447 -3.85957 5.31688 -26.9497 2.77568 5.41139 6.11767 -4.12481 -10.5114 -2.59549 6.49132 27.9862 -3.94991 0 0 0 -2.60264 -28.3171 -28.3792 -2.60468 1.98212 -1.98039 0.0433882 -3.62524 -60.6228 0 0 0 -15.4404 -25.3636 -0.0542271 8.2073 -8.48688 3.3388 13.1154 -17.0506 45.8238 0 0 0 -8.85768 -5.13362 11.3581 
-55.8106 2.6217 -26.5815 2.58952 4.58019 96.9726 -0.0880136 -10.2125 5.15224 1.2519 16.3533 7.71886 -6.18588 2.89759 -2.93746 -3.88823 5.30107 -26.9611 2.79246 5.44635 6.1124 -4.11826 -10.5243 -2.62377 6.46383 27.9608 -3.88905 0 0 0 -2.64237 -28.2831 -28.4509 -2.64171 1.88797 -1.98398 0.0237271 -3.62466 -60.7089 0 0 0 -15.4331 -25.3034 -0.0649295 8.19946 -8.4732 3.33848 13.1648 -17.0445 45.8056 0 0 0 -8.83452 -5.06977 11.3083 
-55.8106 2.6192 -26.589 2.57883 4.5758 97.0054 -0.117328 -10.2167 5.12213 1.24688 16.3413 7.72892 -6.15611 2.89607 -2.94827 -3.89773 5.31285 -26.9709 2.81288 5.43539 6.10455 -4.11847 -10.5179 -2.63358 6.43082 27.9456 -3.81229 0 0 0 -2.68734 -28.2674 -28.5311 -2.66418 1.84078 -1.99543 0.0222786 -3.61783 -60.77 0 0 0 -15.4338 -25.2484 -0.0918773 8.19895 -8.46443 3.34932 13.2063 -17.0355 45.7914 0 0 0 -8.81423 -5.02514 11.2631 
-55.8055 2.6268 -26.5965 2.55077 4.5745 97.0281 -0.146202 -10.2306 5.10091 1.25087 16.324 7.72875 -6.13374 2.89577 -2.94597 -3.89341 5.31575 -26.9834 2.80985 5.40679 6.11059 -4.10976 -10.5039 -2.64302 6.40901 27.9429 -3.75964 0 0 0 -2.71875 -28.2776 -28.593 -2.65258 1.83159 -1.99602 0.0125551 -3.59323 -60.8029 0 0 0 -15.4493 -25.2393 -0.116745 8.20412 -8.43343 3.36675 13.2448 -17.0216 45.8276 0 0 0 -8.81434 -5.03237 11.2252 
-55.803 2.6268 -26.604 2.53242 4.57654 97.0368 -0.180773 -10.2335 5.10522 1.30494 16.2931 7.70125 -6.14965 2.90935 -2.94981 -3.89168 5.32211 -26.9887 2.80401 5.37138 6.11174 -4.09669 -10.4932 -2.64476 6.38105 27.9347 -3.7101 0 0 0 -2.72979 -28.2786 -28.6247 -2.64798 1.82089 -2.00451 -0.00796752 -3.59495 -60.814 0 0 0 -15.4579 -25.2296 -0.113419 8.20035 -8.39986 3.38162 13.3002 -16.9898 45.8697 0 0 0 -8.81796 -5.03276 11.1913 
-55.803 2.6318 -26.6091 2.51555 4.58292 97.0465 -0.212675 -10.236 5.10679 1.35112 16.2666 7.6681 -6.16565 2.92226 -2.93872 -3.9071 5.30964 -26.9938 2.80378 5.36006 6.11002 -4.08885 -10.4744 -2.64206 6.35231 27.9186 -3.67025 0 0 0 -2.74723 -28.2624 -28.6486 -2.63057 1.80929 -2.0083 -0.0523856 -3.65402 -60.8114 0 0 0 -15.4719 -25.2228 -0.0918579 8.19153 -8.38557 3.38311 13.3781 -16.9287 45.9117 0 0 0 -8.81824 -5.02159 11.1618 
-55.8055 2.6343 -26.6116 2.50423 4.58731 97.0501 -0.238978 -10.2262 5.09871 1.3972 16.2388 7.64032 -6.18635 2.93141 -2.91592 -3.93144 5.29163 -26.9987 2.80764 5.363 6.11457 -4.09029 -10.4606 -2.63421 6.33116 27.9154 -3.64116 0 0 0 -2.76168 -28.2572 -28.6758 -2.61124 1.8031 -1.99709 -0.123128 -3.75807 -60.8159 0 0 0 -15.4835 -25.2208 -0.0693069 8.19505 -8.36484 3.37919 13.4487 -16.8796 45.9673 0 0 0 -8.81999 -5.01668 11.1334 
